<svg xmlns="http://www.w3.org/2000/svg" version="1.1" xmlns:xlink="http://www.w3.org/1999/xlink" width="512" height="512" x="0" y="0" viewBox="0 0 500 500" style="enable-background:new 0 0 512 512" xml:space="preserve" class=""><g><path fill="#ff8e00" d="M220.723 336.74a6.5 6.5 0 0 0-4.803-2.12H90.893a6.5 6.5 0 0 0-6.48 7.009l6.59 83.813a6.5 6.5 0 0 0 6.48 5.991h110.69a6.5 6.5 0 0 0 6.472-5.902l7.748-83.813a6.502 6.502 0 0 0-1.67-4.978zm-67.317 59.673c-7.393 0-13.386-5.993-13.386-13.387 0-7.393 5.993-13.386 13.386-13.386 7.394 0 13.387 5.993 13.387 13.386 0 7.394-5.993 13.387-13.387 13.387z" opacity="1" data-original="#3366ff" class=""></path><g fill="#070606"><path d="M403.897 285.71a6.48 6.48 0 0 0 4.597-1.903l20.28-20.28a6.5 6.5 0 1 0-9.192-9.193l-20.28 20.28a6.5 6.5 0 0 0 4.595 11.097zM380.453 268.327a6.501 6.501 0 0 0 8.73-2.88l3.668-7.279a6.5 6.5 0 0 0-11.61-5.85l-3.668 7.279a6.5 6.5 0 0 0 2.88 8.73zM436.762 291.577a6.5 6.5 0 0 0-8.73-2.878l-10.371 5.227a6.5 6.5 0 1 0 5.851 11.609l10.372-5.228a6.5 6.5 0 0 0 2.878-8.73zM396.401 326.288c8.46-11.065 7.642-26.997-2.47-37.11-10.114-10.113-26.046-10.931-37.11-2.47l-18.66-18.661a6.5 6.5 0 0 0-10.698 2.352l-31.908 86.745a6.5 6.5 0 0 0 1.504 6.84l22.065 22.065a6.5 6.5 0 0 0 6.84 1.505l6.499-2.39 8.506 8.506a20.963 20.963 0 0 0 22.239 4.768 20.857 20.857 0 0 0 13.036-15.183 20.858 20.858 0 0 0-1.662-13.585l38.127-14.026a6.5 6.5 0 0 0 2.352-10.697zm-11.663-27.917c5.027 5.027 5.785 12.713 2.309 18.562l-20.872-20.871c5.85-3.476 13.535-2.718 18.563 2.309zm-21.205 82.16c-.575 2.682-2.377 4.78-4.941 5.754a7.948 7.948 0 0 1-8.43-1.807l-4.259-4.259 16.298-5.995c1.326 1.81 1.817 4.044 1.332 6.306zm-38.156-6.613L309.19 357.73l26.965-73.303 62.527 62.526zM293.724 369.048a6.5 6.5 0 0 0-9.192 9.193l20.336 20.336c1.269 1.269 2.932 1.903 4.596 1.903s3.327-.634 4.596-1.903a6.5 6.5 0 0 0 0-9.193zM272.33 418.433h-11.813c.084-5.516.253-11.155.42-16.665 1.192-39.159 2.512-82.767-27.205-104.252 10.528-8.707 29.223-27.256 27.51-42.504-.542-4.814-3.236-11.36-13-15.201-20.122-7.917-18.516-48.4-15.583-68.194.082-.344.134-.7.16-1.064.193-1.238.39-2.39.586-3.431.076-.399.114-.804.114-1.21 0-43.95-35.756-79.706-79.706-79.706l-.045.002-.044-.002c-3.576 0-7.091.26-10.544.719a6.44 6.44 0 0 0-.88.112c-38.556 5.56-68.282 38.805-68.282 78.875 0 .404.038.81.113 1.207.29 1.531.58 3.303.858 5.249.015.44.075.872.176 1.291 2.728 20.413 3.581 58.499-15.87 66.152-9.054 3.562-11.585 9.614-12.113 14.063-1.718 14.467 16.337 31.935 27.433 41.192-12.917 7.932-21.356 20.201-25.625 37.155-4.791 19.03-3.759 41.782-2.76 63.785.337 7.425.669 15.043.782 22.427H34.484a6.5 6.5 0 0 0 0 13h237.845a6.5 6.5 0 0 0 0-13zM243.481 251.91c4.53 1.781 4.756 3.797 4.84 4.555 1 8.889-16.978 27.285-26.958 34.205a72.373 72.373 0 0 0-5.932-2.163c-27.375-8.645-35.054-17.14-37.195-21.433-1.241-2.49-.755-3.934-.733-3.994-.084.236-.167.353-.167.353l-2.375-1.25c17.18-6.928 30.05-22.34 33.397-41.023.06-.243.1-.49.132-.737.48-2.904.74-5.881.74-8.919v-35.971c3.156.394 6.418.667 9.764.844-2.242 21.207-3.196 64.64 24.487 75.533zm-132.088-71.663c.452-.038.899-.069 1.355-.113 21.084-2.023 38.07-10.196 49.608-23.767 9.14 7.91 20.472 13.504 33.874 16.783v38.354c0 1.355-.07 2.694-.198 4.016-5.774 2.976-12.245 4.831-19.286 5.512a6.5 6.5 0 0 0 1.25 12.94 69.327 69.327 0 0 0 13.158-2.564c-7.07 12.933-20.804 21.726-36.553 21.726h-1.578c-22.955 0-41.63-18.675-41.63-41.63zm27.066 90.901c1.03-2.395 1.516-4.603 1.696-6.56a54.536 54.536 0 0 0 12.868 1.546h1.578c3.357 0 6.64-.32 9.832-.904.13 1.813.551 3.87 1.478 6.124 3.258 7.924 11.503 15.09 24.594 21.41-4.957 10.796-20.31 18.437-37.631 18.437-17.528 0-33.202-8.003-37.866-18.965 12.207-6.163 20.069-13.219 23.451-21.088zm81.993-107.706c-24.092-1.14-42.376-8.375-54.38-21.57-13.398-14.725-15.746-33.524-16.043-42.557a67.403 67.403 0 0 1 3.694-.108l.044-.002.044.002c35.952 0 65.332 28.597 66.64 64.235zm-83.38-62.13c.516 10.621 3.431 29.316 16.243 45.577-19.214 23.877-53.966 21.379-66.09 19.65-.08-.486-.15-.895-.206-1.202.263-30.78 21.481-56.655 50.054-64.024zM71.009 273.83c-10.782-11.597-11.082-17.033-10.917-18.422.066-.557.241-2.034 3.964-3.498 26.238-10.324 26.75-49.878 24.824-72.036 2.705.306 5.922.572 9.515.689v30.941c0 21.65 12.66 40.398 30.964 49.233l-2.136 1.04s-.059-.095-.126-.283c.028.08.687 2.01-.86 5.123-2.242 4.518-10.034 13.369-37.017 21.89-.483.152-.94.329-1.414.49-4.204-3.218-10.876-8.799-16.797-15.167zM59.216 395.417c-.956-21.064-1.944-42.846 2.38-60.021 4.58-18.185 14.6-29.145 31.538-34.494a180.153 180.153 0 0 0 9.979-3.464c6.823 15.731 26.9 26.762 49.762 26.762 22.787 0 42.623-10.706 49.61-26.385a194.361 194.361 0 0 0 9.032 3.087c39.109 12.35 37.806 55.154 36.427 100.47-.172 5.628-.344 11.391-.429 17.061H60.013c-.113-7.632-.452-15.425-.797-23.016z" fill="#5c5c63" opacity="1" data-original="#070606" class=""></path></g><path fill="#ff8e00" d="M451.445 68.567H279.37c-11.343 0-20.571 9.228-20.571 20.57v88.125c0 11.344 9.228 20.572 20.571 20.572h2.214l.004 19.564a6.501 6.501 0 0 0 10.096 5.414l37.613-24.978h122.147c11.343 0 20.571-9.228 20.571-20.572V89.138c0-11.343-9.228-20.571-20.571-20.571zM302.296 99.719h24.106a6.5 6.5 0 0 1 0 13h-24.106a6.5 6.5 0 0 1 0-13zm75.278 66.398h-75.278a6.5 6.5 0 0 1 0-13h75.278a6.5 6.5 0 0 1 0 13zm53.384 0h-17.015a6.5 6.5 0 0 1 0-13h17.015a6.5 6.5 0 0 1 0 13zm0-24.942H302.296a6.5 6.5 0 0 1 0-13h128.662a6.5 6.5 0 0 1 0 13z" opacity="1" data-original="#3366ff" class=""></path></g></svg>