<?xml version="1.0" encoding="UTF-8"?>
<svg id="Capa_2" data-name="Capa 2" xmlns="http://www.w3.org/2000/svg" viewBox="0 0 1466.95 1009.46">
  <defs>
    <style>
      .cls-1 {
        fill: #4d4d4d;
      }
    </style>
  </defs>
  <g id="Capa_1-2" data-name="Capa 1">
    <g>
      <g>
        <path class="cls-1" d="M481.06,604.71l-5.93.27H208.95c-4.09,0-4.62-5.92-.6-6.68.56-.11,1.06-.2,1.49-.28,59.16-11.21,102.06-53.81,122.42-110.84l12.74-35.68,69.19-338.98,7.38-31.02C439.5,4.3,503.35.73,503.35.73c0,0,65.97-4.09,89.13,87.14.62,2.46.95,4.96,1.46,7.45l66.38,321.72s-11.65,180.51-179.27,187.67Z"/>
        <path class="cls-1" d="M1132.13,598.36c3.77,1.08,3.04,6.61-.88,6.61h-254.87s-155.01,3.33-185.76-172.57l-65.04-319.07S607.96.05,528.52.05h291.08s88.27-5.04,108.38,89.14l67.2,325.36s22.49,150,136.83,183.78c.03,0,.07.02.11.03Z"/>
      </g>
      <g>
        <path class="cls-1" d="M51.78,950.88c0,18.14-9.58,27.21-28.72,27.21H4.15l-4.15,26.08c3.02,1.26,6.73,2.27,11.14,3.02,4.41.76,9.01,1.32,13.8,1.7,4.78.38,8.94.57,12.47.57,16.63,0,29.48-4.85,38.55-14.55,9.07-9.69,13.6-24,13.6-42.89v-212.39h-37.79v211.26Z"/>
        <path class="cls-1" d="M263.03,742.45c-2.52-1.89-5.42-2.83-8.69-2.83h-38.55c-3.27,0-6.17.94-8.69,2.83-2.52,1.89-4.29,4.35-5.29,7.37l-82.39,259.64h38.92l24.92-83.9h103.21l24.92,83.9h39.3l-82.39-259.64c-1-3.02-2.77-5.48-5.29-7.37ZM192.59,894.19l30.76-103.55c1.26-3.78,2.39-7.56,3.4-11.34,1-3.78,2.01-7.31,3.02-10.58h10.58c1.01,3.28,2.01,6.8,3.02,10.58,1,3.78,2.01,7.56,3.02,11.34l30.76,103.55h-84.58Z"/>
        <path class="cls-1" d="M442.92,977.72c-8.32,0-14.5-1.95-18.52-5.86-4.03-3.9-6.04-9.88-6.04-17.95v-214.28h-37.42v219.95c0,14.36,4.16,26.27,12.47,35.72,8.32,9.44,22.05,14.17,41.2,14.17,17.38,0,34.77-.13,52.15-.38,17.38-.25,34.52-1,51.4-2.27l-1.89-29.1h-93.34Z"/>
        <polygon class="cls-1" points="594.85 739.63 512.08 739.63 512.08 772.12 594.85 772.12 594.85 1009.46 632.63 1009.46 632.63 772.12 715.78 772.12 715.78 739.63 632.63 739.63 594.85 739.63"/>
        <path class="cls-1" d="M793.25,776.66c3.53-3.78,9.07-5.67,16.63-5.67h103.93l1.51-29.1c-11.6-.76-23.75-1.32-36.47-1.69-12.72-.38-25.64-.57-38.73-.57h-38.55c-15.62,0-28.03,4.15-37.23,12.47-9.2,8.32-13.92,19.65-14.17,34.02v176.87c.25,14.11,4.97,25.39,14.17,33.82,9.2,8.45,21.61,12.66,37.23,12.66,12.6,0,25.44-.07,38.55-.19,13.09-.13,26.01-.31,38.73-.57,12.72-.25,24.88-.76,36.47-1.51l-1.51-28.72h-103.93c-7.56,0-13.11-1.95-16.63-5.86-3.53-3.9-5.29-10.01-5.29-18.33v-72.19h111.1v-29.09h-111.1v-58.2c0-8.32,1.76-14.37,5.29-18.15Z"/>
        <path class="cls-1" d="M1094.65,975.26c-11.22.63-25.01.95-41.39.95s-28.85-3.15-38.17-9.45c-9.33-6.3-15.94-16.81-19.84-31.55-3.91-14.74-5.86-34.96-5.86-60.66s1.95-45.92,5.86-60.66c3.9-14.74,10.51-25.26,19.84-31.56,9.32-6.3,22.04-9.45,38.17-9.45,10.33,0,19.21.13,26.64.38,7.43.25,14.42.57,20.98.95,6.54.38,13.6.95,21.16,1.7l3.78-28.34c-7.31-2.01-14.36-3.58-21.16-4.72-6.8-1.13-14.24-1.95-22.3-2.46-8.06-.5-17.76-.76-29.1-.76-25.2,0-45.41,4.35-60.65,13.03-15.25,8.69-26.27,22.86-33.07,42.52-6.8,19.65-10.21,46.1-10.21,79.36s3.4,59.71,10.21,79.36c6.8,19.65,17.82,33.83,33.07,42.51,15.24,8.69,35.45,13.04,60.65,13.04,17.39,0,31.94-.7,43.65-2.08,11.71-1.39,23.11-3.71,34.2-6.99l-3.78-28.34c-10.58,1.51-21.48,2.59-32.69,3.21Z"/>
        <polygon class="cls-1" points="1324.61 849.98 1209.72 849.98 1209.72 739.63 1171.93 739.63 1171.93 1009.46 1209.72 1009.46 1209.72 881.35 1324.61 881.35 1324.61 1009.46 1362.79 1009.46 1362.79 739.63 1324.61 739.63 1324.61 849.98"/>
        <path class="cls-1" d="M1466.8,754.76c-.12-1-.41-2.06-.87-3.18-.48-1.12-1.18-2.26-2.11-3.41-.93-1.15-2.2-2.18-3.79-3.11-1.59-.91-3.56-1.66-5.91-2.26-2.37-.59-5.22-.91-8.57-.91h-5.56s-3-.03-3-.03h-1.77s-6.81-.02-6.81-.02c-5.01-.02-8.93.59-11.8,1.82-2.86,1.23-5.01,2.68-6.46,4.35-1.44,1.68-2.35,3.37-2.69,5.07-.38,1.7-.56,3.03-.56,3.98l-.05,16.95v.7l-.05,16.96c0,.94.17,2.27.53,3.98.34,1.7,1.24,3.4,2.67,5.09,1.45,1.68,3.59,3.14,6.44,4.39,2.86,1.25,6.77,1.88,11.79,1.89h4.15s4.49.03,4.49.03h3.8s4.68.03,4.68.03c3.36,0,6.21-.28,8.58-.86,2.35-.59,4.33-1.33,5.93-2.24,1.59-.91,2.86-1.94,3.81-3.08.94-1.14,1.64-2.28,2.13-3.4.47-1.11.76-2.18.89-3.18.12-1,.17-1.82.18-2.47l.05-17.31.05-17.31c0-.65-.05-1.48-.16-2.48ZM1461.03,760.58l-.04,13.87v.17l-.05,13.87v.89c0,.83-.12,1.9-.37,3.22-.23,1.32-.85,2.61-1.86,3.84-1.01,1.23-2.54,2.28-4.6,3.17-2.07.87-4.93,1.3-8.58,1.3l-8.92-.03-8.57-.03c-3.65,0-6.51-.46-8.57-1.34-2.06-.9-3.59-1.96-4.58-3.2-1-1.23-1.61-2.53-1.84-3.85-.23-1.32-.35-2.39-.35-3.22v-.89s.05-13.25.05-13.25v-1.41l.04-13.26v-.87c0-.83.13-1.9.37-3.23.24-1.32.86-2.6,1.86-3.83,1-1.24,2.54-2.29,4.6-3.17,2.07-.87,4.92-1.31,8.57-1.3l8.93.03,8.56.02c3.66.01,6.51.46,8.57,1.35,2.05.89,3.59,1.96,4.59,3.2,1,1.23,1.61,2.52,1.83,3.84.25,1.33.35,2.41.35,3.23v.88Z"/>
        <path class="cls-1" d="M1448.93,759.21c-.94-1.12-2.35-2.09-4.23-2.88-1.88-.8-4.47-1.21-7.77-1.21-3.29-.01-5.9.38-7.77,1.21-1.9.82-3.3,1.77-4.25,2.86-.95,1.09-1.53,2.19-1.79,3.31-.22,1.12-.35,2-.35,2.65v1.94l-.08,25.71,7.06.02.03-7.69v-.18c0-.83.21-1.5.61-2.03.42-.53.87-.94,1.33-1.23.59-.36,1.24-.61,1.95-.79.4-.12.91-.29,1.51-.52.46-.18,1.02-.38,1.63-.57.62-.21,1.25-.42,1.9-.66l4.81,13.71,7.43.02-5.61-16.1c1.77-.93,3.1-2.04,3.98-3.31.9-1.25,1.43-2.62,1.6-4.09v-.26c.07-.25.1-.57.1-.98v-.79s.01-2.12.01-2.12c0-.65-.13-1.53-.35-2.65-.24-1.12-.83-2.24-1.77-3.36ZM1443.95,767.59c-.1.65-.38,1.34-.83,2.07-.44.74-1.25,1.31-2.43,1.71-.29.12-.6.24-.93.35-.31.13-.66.24-1.02.35-1.36.47-2.93,1.03-4.73,1.67-1.8.64-3.2,1.14-4.2,1.49l.02-7.95v-.79c0-.47.07-1,.23-1.6.15-.57.45-1.15.93-1.67.47-.53,1.17-.98,2.07-1.36.92-.38,2.14-.57,3.67-.56,1.41,0,2.56.15,3.44.45.89.29,1.6.67,2.16,1.11.56.44.95.92,1.19,1.41.22.5.38,1,.42,1.46v1.86Z"/>
      </g>
    </g>
  </g>
</svg>
