<?xml version="1.0" encoding="UTF-8"?>
<svg id="Capa_2" data-name="Capa 2" xmlns="http://www.w3.org/2000/svg" viewBox="0 0 935.68 634.81">
  <defs>
    <style>
      .cls-1 {
        fill: #4d4d4d;
      }
    </style>
  </defs>
  <g id="Capa_1-2" data-name="Capa 1">
    <g>
      <path class="cls-1" d="M933.09,627.87s-.08-.02-.11-.03c-112.96-35.93-135.16-192.84-135.16-192.84l-70.52-341.41C705.9,0,619.43.05,613.56.05h-63.37l.02-.05h-215.32c-.15,0-.28.02-.41.05-1.23.34-1.43,2.18-.1,2.7,57.27,22.4,72.59,101.56,73.05,104.03,0,.04.01.06.01.06l.02.07,31.87,156.1,38.87,190.73c32.27,184.56,194.92,181.08,194.92,181.08h259.03c4.11,0,4.88-5.82.92-6.94Z"/>
      <path class="cls-1" d="M375.24,92.21c-3.64-14.33-8.28-25.22-13.55-35.41h0c-2.26-4.76-4.76-9.11-7.43-13.1,0,0,0-.01-.02-.03-.03-.04-.08-.12-.15-.24-.05-.07-.1-.14-.14-.21-3.76-5.77-41.11-60.4-94.27-37.2-.08.03-.15.06-.23.1-21.46,9.44-35.7,24.04-45.11,38.47-.05.08-.11.17-.16.26-7.23,11.14-11.57,22.16-14.14,30.63-.75,2.47-3.09,12.34-6.11,25.48-7.92,34.4-20.53,89.98-21.6,94.76-.04.21-.07.32-.07.32l-33.08,162.08s0,.06-.03.17c-.38,2.37-4.91,30.06-13.63,66.75-16.66,70.07-38.74,172.02-96.33,194.83-6.49,2.88-13.75,5.08-21.77,6.82-1.38.3-4.34.88-4.43.9-4.36.85-3.77,7.26.68,7.26,62.11,0,254.66-.28,254.66-.28,155.33-6.63,183.01-155.14,187.36-189.76.56-4.45.37-8.96-.53-13.35-17.1-82.84-69.26-336.64-69.91-339.21Z"/>
    </g>
  </g>
</svg>