<?xml version="1.0" encoding="UTF-8"?>
<svg id="Capa_2" data-name="Capa 2" xmlns="http://www.w3.org/2000/svg" viewBox="0 0 3334.52 699.24">
  <defs>
    <style>
      .cls-1 {
        fill: #4d4d4d;
      }
    </style>
  </defs>
  <g id="Capa_1-2" data-name="Capa 1">
    <g>
      <g>
        <path class="cls-1" d="M1027.78,691.58s-.08-.03-.12-.03c-124.43-39.58-148.88-212.41-148.88-212.41l-77.67-376.06C777.54,0,682.29.06,675.83.06h-69.8l.03-.06h-237.17c-.16,0-.31.02-.45.06-1.36.37-1.58,2.4-.11,2.97,63.08,24.68,79.95,111.87,80.47,114.59,0,.05.01.06.01.06l.02.08,35.1,171.94,42.82,210.08c35.54,203.29,214.7,199.45,214.7,199.45h285.31c4.53,0,5.37-6.41,1.01-7.65Z"/>
        <path class="cls-1" d="M413.32,101.57c-4-15.78-9.12-27.78-14.93-39h0c-2.49-5.24-5.24-10.03-8.18-14.43,0,0,0-.01-.02-.04-.03-.04-.08-.13-.17-.27-.06-.08-.11-.16-.16-.23-4.14-6.36-45.28-66.53-103.84-40.98-.08.03-.17.07-.25.11-23.64,10.4-39.33,26.47-49.69,42.37-.06.09-.12.19-.18.28-7.96,12.27-12.75,24.41-15.58,33.73-.83,2.72-3.4,13.59-6.73,28.06-8.72,37.89-22.62,99.11-23.79,104.37-.05.23-.08.35-.08.35l-36.44,178.53s0,.06-.03.18c-.42,2.61-5.41,33.11-15.01,73.52-18.35,77.18-42.67,189.48-106.11,214.6-7.15,3.17-15.14,5.6-23.98,7.51-1.53.33-4.78.97-4.88.99-4.8.94-4.15,7.99.75,7.99,68.41,0,280.5-.31,280.5-.31,171.09-7.3,201.58-170.88,206.38-209.01.61-4.9.41-9.87-.59-14.71-18.83-91.25-76.29-370.8-77.01-373.63Z"/>
      </g>
      <g>
        <path class="cls-1" d="M1223.5,463.49c0,27.06-14.29,40.59-42.85,40.59h-28.2l-6.19,38.9c4.51,1.89,10.04,3.38,16.62,4.51,6.57,1.13,13.44,1.97,20.58,2.54,7.14.56,13.34.85,18.6.85,24.81,0,43.97-7.23,57.51-21.71,13.53-14.46,20.29-35.8,20.29-63.98V148.36h-56.37v315.13Z"/>
        <path class="cls-1" d="M1538.64,152.58c-3.76-2.82-8.09-4.22-12.97-4.22h-57.51c-4.88,0-9.21,1.4-12.96,4.22-3.76,2.82-6.4,6.48-7.89,11l-122.9,387.3h58.06l37.18-125.15h153.97l37.18,125.15h58.62l-122.9-387.3c-1.5-4.51-4.13-8.18-7.88-11ZM1433.55,378.93l45.89-154.47c1.88-5.64,3.57-11.28,5.08-16.92,1.5-5.64,3-10.9,4.51-15.79h15.78c1.51,4.89,3,10.15,4.51,15.79,1.5,5.64,3,11.28,4.51,16.92l45.89,154.47h-126.16Z"/>
        <path class="cls-1" d="M1806.98,503.52c-12.41,0-21.62-2.91-27.63-8.74-6.02-5.82-9.01-14.74-9.01-26.77V148.36h-55.82v328.1c0,21.42,6.2,39.18,18.6,53.28,12.41,14.09,32.89,21.14,61.45,21.14,25.93,0,51.87-.2,77.8-.56s51.49-1.5,76.67-3.38l-2.82-43.41h-139.24Z"/>
        <polygon class="cls-1" points="2033.6 148.36 1910.14 148.36 1910.14 196.83 2033.6 196.83 2033.6 550.88 2089.97 550.88 2089.97 196.83 2213.99 196.83 2213.99 148.36 2089.97 148.36 2033.6 148.36"/>
        <path class="cls-1" d="M2329.56,203.6c5.26-5.64,13.53-8.46,24.81-8.46h155.03l2.26-43.41c-17.3-1.13-35.43-1.97-54.41-2.53-18.98-.56-38.25-.85-57.78-.85h-57.51c-23.3,0-41.82,6.19-55.53,18.6-13.72,12.41-20.77,29.31-21.14,50.74v263.84c.37,21.05,7.42,37.87,21.14,50.45,13.72,12.6,32.23,18.89,55.53,18.89,18.79,0,37.95-.1,57.51-.28,19.53-.2,38.8-.47,57.78-.85,18.98-.37,37.11-1.13,54.41-2.26l-2.26-42.85h-155.03c-11.28,0-19.55-2.91-24.81-8.74-5.26-5.82-7.88-14.93-7.88-27.34v-107.68h165.73v-43.4h-165.73v-86.82c0-12.41,2.62-21.43,7.88-27.07Z"/>
        <path class="cls-1" d="M2779.15,499.85c-16.73.94-37.3,1.41-61.74,1.41s-43.03-4.7-56.93-14.1c-13.91-9.39-23.78-25.08-29.59-47.06-5.83-21.99-8.74-52.15-8.74-90.48s2.91-68.5,8.74-90.48c5.81-21.98,15.68-37.67,29.59-47.07,13.9-9.39,32.88-14.1,56.93-14.1,15.41,0,28.66.2,39.74.56,11.08.38,21.51.85,31.3,1.41,9.76.56,20.29,1.41,31.57,2.54l5.64-42.28c-10.91-3-21.43-5.35-31.57-7.04-10.15-1.69-21.24-2.91-33.27-3.67-12.03-.75-26.49-1.13-43.41-1.13-37.59,0-67.74,6.48-90.47,19.44-22.75,12.97-39.18,34.11-49.33,63.43-10.15,29.31-15.23,68.77-15.23,118.39s5.08,89.07,15.23,118.39c10.15,29.31,26.58,50.46,49.33,63.42,22.73,12.97,52.89,19.45,90.47,19.45,25.94,0,47.64-1.04,65.12-3.1,17.47-2.07,34.47-5.54,51.02-10.43l-5.64-42.28c-15.79,2.26-32.04,3.86-48.77,4.79Z"/>
        <polygon class="cls-1" points="3122.19 312.98 2950.81 312.98 2950.81 148.36 2894.44 148.36 2894.44 550.88 2950.81 550.88 2950.81 359.77 3122.19 359.77 3122.19 550.88 3179.13 550.88 3179.13 148.36 3122.19 148.36 3122.19 312.98"/>
        <path class="cls-1" d="M3334.28,170.94c-.18-1.49-.61-3.07-1.3-4.74-.72-1.67-1.76-3.37-3.15-5.09-1.39-1.72-3.29-3.26-5.66-4.64-2.37-1.35-5.31-2.48-8.81-3.38-3.53-.89-7.78-1.35-12.79-1.36l-8.3-.02-4.48-.02h-2.63s-10.15-.03-10.15-.03c-7.48-.03-13.33.88-17.6,2.72-4.26,1.84-7.48,4-9.64,6.49-2.15,2.5-3.5,5.03-4.02,7.57-.56,2.54-.83,4.53-.83,5.94l-.08,25.29v1.05l-.07,25.3c-.01,1.4.25,3.39.79,5.94.51,2.54,1.85,5.07,3.98,7.59,2.16,2.51,5.35,4.68,9.6,6.55,4.26,1.86,10.1,2.8,17.59,2.82l6.19.02,6.7.02,5.67.02,6.99.02c5,.01,9.27-.42,12.8-1.28,3.51-.87,6.46-1.98,8.84-3.34,2.37-1.35,4.27-2.89,5.68-4.6,1.4-1.7,2.45-3.4,3.18-5.07.7-1.66,1.14-3.25,1.32-4.74.17-1.49.25-2.72.26-3.68l.07-25.83.08-25.82c0-.98-.07-2.21-.23-3.7ZM3325.69,179.61l-.06,20.69v.25l-.07,20.69v1.32c0,1.23-.17,2.83-.55,4.8-.35,1.97-1.27,3.9-2.78,5.73-1.51,1.84-3.79,3.41-6.87,4.73-3.08,1.3-7.35,1.94-12.8,1.93l-13.31-.04-12.78-.04c-5.44-.01-9.7-.69-12.78-2-3.07-1.34-5.35-2.92-6.84-4.77-1.49-1.84-2.4-3.77-2.75-5.75-.35-1.97-.52-3.57-.52-4.8v-1.32s.07-19.77.07-19.77v-2.11l.06-19.78v-1.3c.01-1.23.19-2.84.55-4.82.36-1.96,1.28-3.88,2.78-5.71,1.5-1.85,3.78-3.42,6.87-4.73,3.08-1.3,7.34-1.95,12.79-1.93l13.32.04,12.77.03c5.45.02,9.71.69,12.79,2.01,3.06,1.33,5.35,2.92,6.85,4.77,1.5,1.84,2.4,3.75,2.74,5.73.37,1.98.53,3.59.52,4.82v1.31Z"/>
        <path class="cls-1" d="M3307.63,177.58c-1.4-1.67-3.5-3.11-6.31-4.29-2.8-1.19-6.67-1.8-11.59-1.81-4.91-.02-8.8.57-11.6,1.8-2.83,1.22-4.92,2.63-6.34,4.26-1.42,1.63-2.29,3.27-2.67,4.93-.34,1.67-.52,2.99-.53,3.96v2.9l-.12,38.35,10.54.03.04-11.47v-.26c0-1.23.32-2.24.92-3.02.62-.79,1.29-1.4,1.98-1.84.89-.54,1.85-.92,2.91-1.18.6-.17,1.36-.43,2.25-.77.69-.26,1.52-.56,2.43-.85.93-.32,1.87-.63,2.84-.99l7.18,20.46,11.08.03-8.36-24.02c2.64-1.38,4.62-3.04,5.93-4.93,1.34-1.86,2.13-3.91,2.39-6.1v-.39c.1-.37.15-.84.15-1.46v-1.18s.02-3.16.02-3.16c0-.97-.19-2.28-.52-3.96-.36-1.67-1.23-3.34-2.63-5.01ZM3300.21,190.08c-.15.97-.57,1.99-1.24,3.09-.66,1.1-1.87,1.95-3.63,2.55-.44.17-.9.36-1.39.52-.47.19-.99.36-1.52.52-2.02.7-4.37,1.54-7.05,2.49-2.69.96-4.77,1.7-6.27,2.22l.03-11.86v-1.18c.01-.7.11-1.5.35-2.38.22-.85.67-1.71,1.39-2.49.7-.79,1.74-1.46,3.09-2.03,1.37-.56,3.19-.84,5.47-.83,2.11,0,3.82.22,5.14.67,1.32.44,2.38,1,3.22,1.66.83.65,1.42,1.37,1.78,2.11.34.75.56,1.49.63,2.18v2.78Z"/>
      </g>
    </g>
  </g>
</svg>