<svg xmlns="http://www.w3.org/2000/svg" version="1.1" xmlns:xlink="http://www.w3.org/1999/xlink" width="512" height="512" x="0" y="0" viewBox="0 0 500 500" style="enable-background:new 0 0 512 512" xml:space="preserve" class=""><g><g fill="#070606"><path d="M297.748 128.251a6.5 6.5 0 0 0-8.974-1.99l-35.26 22.456a6.5 6.5 0 0 0 6.985 10.965l35.26-22.457a6.5 6.5 0 0 0 1.99-8.974zM249.885 110.903a6.5 6.5 0 0 0-9.146.92l-9.681 11.846a6.5 6.5 0 0 0 10.066 8.227l9.681-11.846a6.5 6.5 0 0 0-.92-9.147zM288.07 173.565l-17.568 4.459a6.5 6.5 0 0 0 3.197 12.6l17.569-4.459a6.5 6.5 0 0 0-3.197-12.6zM93.7 236.49a6.5 6.5 0 1 0-10.965 6.984l19.682 30.902a6.495 6.495 0 0 0 8.974 1.99 6.5 6.5 0 0 0 1.99-8.974z" fill="#5c5c63" opacity="1" data-original="#070606" class=""></path><path d="M373.007 46.762h-180.91c-15.9 0-28.834 12.935-28.834 28.835v22.142a6.5 6.5 0 0 0 13 0V75.597c0-8.731 7.104-15.835 15.834-15.835h180.91c8.73 0 15.834 7.104 15.834 15.835v153.578a6.5 6.5 0 0 0 13 0V75.597c0-15.9-12.934-28.835-28.834-28.835zM395.341 364.543a6.5 6.5 0 0 0-6.5 6.5v7.735H176.263v-89.915c7.064-1.932 12.928-6.867 16.028-13.635a24.79 24.79 0 0 0 1.035-18.105l53.316-7.198a6.499 6.499 0 0 0 4.612-9.933l-18.915-29.699c13.905-10.664 17.606-30.437 8.02-45.49-9.588-15.055-29.072-20.06-44.615-11.968l-18.915-29.7a6.5 6.5 0 0 0-5.471-3.007h-.012a6.501 6.501 0 0 0-5.47 2.988l-63.616 99.08a6.5 6.5 0 0 0-.012 7.004l21.355 33.53a6.5 6.5 0 0 0 6.353 2.949l9.868-1.332 8.845 13.888a24.91 24.91 0 0 0 14.594 10.67v135.499c0 15.899 12.935 28.834 28.834 28.834h180.91c15.9 0 28.834-12.935 28.834-28.834v-53.361a6.5 6.5 0 0 0-6.5-6.5zM229.394 171.786c5.731 9 3.785 20.707-4.09 27.46l-22.524-35.364c9.448-4.282 20.881-1.097 26.614 7.904zm-113.948 53.936 55.878-87.03 63.505 99.71-102.495 13.838zm44.187 45.529-5.617-8.82 25.927-3.501c1.957 3.372 2.168 7.306.53 10.884-1.713 3.738-5.028 6.222-9.097 6.815a11.897 11.897 0 0 1-11.743-5.379zm213.374 168.987h-180.91c-8.73 0-15.834-7.104-15.834-15.835v-32.625h212.578v32.625c0 8.731-7.103 15.835-15.834 15.835z" fill="#5c5c63" opacity="1" data-original="#070606" class=""></path><path d="M285.642 407.62h-6.18a6.5 6.5 0 0 0 0 13h6.18a6.5 6.5 0 0 0 0-13zM353.913 105.565a6.5 6.5 0 0 0 0-13h-11.835a6.5 6.5 0 0 0 0 13z" fill="#5c5c63" opacity="1" data-original="#070606" class=""></path></g><g fill="#36f"><path d="M279.718 290.343h-40.364a6.5 6.5 0 0 0-6.5 6.5v47.885a6.5 6.5 0 0 0 6.5 6.5h40.364a6.5 6.5 0 0 0 6.5-6.5v-47.885a6.5 6.5 0 0 0-6.5-6.5zM346.155 258.036H305.79a6.5 6.5 0 0 0-6.5 6.5v80.191a6.5 6.5 0 0 0 6.5 6.5h40.365a6.5 6.5 0 0 0 6.5-6.5v-80.19a6.5 6.5 0 0 0-6.5-6.5zM411.784 224.485h-40.365a6.5 6.5 0 0 0-6.5 6.5v113.743a6.5 6.5 0 0 0 6.5 6.5h40.365a6.5 6.5 0 0 0 6.5-6.5V230.985a6.5 6.5 0 0 0-6.5-6.5zM352.213 187.987a6.494 6.494 0 0 0-5.244-1.473l-29.527 4.72a6.5 6.5 0 0 0-5.393 7.445 6.495 6.495 0 0 0 7.446 5.392l11.876-1.898c-13.746 14.966-53.53 53.993-103.023 64.32a6.5 6.5 0 1 0 2.656 12.726c54.317-11.334 96.268-53.046 110.492-68.792v8.857a6.5 6.5 0 0 0 13 0v-26.351a6.5 6.5 0 0 0-2.283-4.946z" fill="#ff8e00" opacity="1" data-original="#3366ff" class=""></path></g></g></svg>