<svg xmlns="http://www.w3.org/2000/svg" version="1.1" xmlns:xlink="http://www.w3.org/1999/xlink" width="512" height="512" x="0" y="0" viewBox="0 0 500 500" style="enable-background:new 0 0 512 512" xml:space="preserve" class=""><g><g fill="#231f20"><path d="M146.837 157.668c.928 0 1.86-.32 2.616-.975 4.02-3.48 8.198-6.72 12.51-9.735 2.028 1.606 4.484 2.222 6.473 2.717 3.846.957 6.168 1.535 7.151 7.202 2.248 12.955 10.58 18.47 17.032 19.255.618.076 1.231.113 1.838.113 5.85-.001 11.043-3.445 13.548-9.14 1.34-3.049 3.706-4.815 7.033-5.25 4.515-.593 9.14 1.455 10.997 3.778 3.129 3.909 9.477 4.932 16.57 2.664 7.313-2.336 14.891-8.224 15.332-16.106.418-7.446 5.996-10.393 18.574-16.346l1.51-.716c3.146-1.493 6.84-4.536 8.328-10.72a150.95 150.95 0 0 1 45.103 19.763c.673.437 1.43.646 2.177.646a4 4 0 0 0 2.185-7.353 158.925 158.925 0 0 0-51.762-21.825c-.06-.017-.122-.03-.183-.044a160.435 160.435 0 0 0-35.095-3.883c-4.256 0-8.562.17-12.797.506a3.999 3.999 0 0 0-3.672 4.302 3.995 3.995 0 0 0 4.304 3.672 152.557 152.557 0 0 1 41.927 2.465c-.97 3.824-3.126 4.856-3.944 5.244l-1.504.712c-12.536 5.934-22.437 10.621-23.138 23.13-.218 3.882-5.085 7.433-9.781 8.934-4.265 1.365-7.228.78-7.888-.043-3.822-4.777-11.515-7.605-18.283-6.713-6.115.8-10.844 4.34-13.317 9.963-1.351 3.073-4.004 4.681-7.095 4.306-3.73-.454-8.619-4.049-10.117-12.681-1.875-10.804-8.902-12.553-13.101-13.598-.184-.046-.335-.086-.502-.129a150.802 150.802 0 0 1 29.331-13.794 4 4 0 0 0-2.61-7.563c-19.264 6.65-36.883 16.817-52.37 30.218a4 4 0 0 0 2.62 7.024zM259.72 423.037c-3.616.257-7.299.387-10.946.387-35.26 0-67.75-12.08-93.553-32.319 2.565-3.943 3.283-9.54 2.114-16.738-1.14-7.015 1.991-8.898 6.73-11.748 3.848-2.315 8.635-5.194 9.16-11.493.911-10.932-11.998-17.074-21.423-21.558-1.932-.919-3.756-1.787-5.116-2.542-5.224-2.902-9.496-20.498-4.333-30.084 3.167-5.883 9.486-7.614 17.486-9.806 4.15-1.136 8.853-2.426 13.538-4.475a36.056 36.056 0 0 0 2.672-1.304 4 4 0 1 0-3.804-7.037c-.671.362-1.37.703-2.075 1.012-4.153 1.817-8.368 2.971-12.444 4.088-9.064 2.484-17.625 4.83-22.417 13.729-6.683 12.41-2.482 35.328 7.492 40.87 1.58.878 3.515 1.798 5.564 2.773 6.905 3.285 17.34 8.25 16.888 13.67-.168 2.017-1.668 3.11-5.31 5.301-4.983 2.997-12.513 7.526-10.504 19.887.74 4.56.577 7.993-.479 10.264-22.652-19.798-39.393-46.2-47.181-76.174l-.122-.468a149.326 149.326 0 0 1-.955-3.959 151.767 151.767 0 0 1-1.926-10.012c-.106-.679-.205-1.36-.302-2.04-.087-.603-.175-1.206-.254-1.81-.098-.746-.185-1.494-.272-2.242-.064-.554-.132-1.108-.19-1.664-.085-.803-.156-1.608-.228-2.413-.045-.513-.096-1.025-.137-1.54-.067-.85-.119-1.702-.171-2.554-.03-.479-.066-.955-.092-1.434-.048-.931-.08-1.865-.112-2.798-.014-.405-.036-.807-.046-1.212-.036-1.339-.054-2.68-.054-4.025 0-16.082 2.5-31.915 7.432-47.06a4 4 0 1 0-7.607-2.477c-5.193 15.944-7.825 32.611-7.825 49.537 0 1.44.021 2.875.059 4.306.012.443.035.884.05 1.327.035.989.07 1.978.123 2.963.028.524.067 1.046.1 1.569.057.9.115 1.802.187 2.7.044.557.098 1.113.148 1.669.078.857.158 1.713.249 2.566.062.587.132 1.173.201 1.758.096.808.195 1.615.302 2.42a157.935 157.935 0 0 0 .604 4.107c.109.68.221 1.36.339 2.037.113.655.233 1.308.354 1.96.142.762.286 1.523.439 2.283.103.51.212 1.02.32 1.529.19.896.381 1.792.586 2.684.058.252.12.502.18.754 7.868 33.546 26.445 63.9 53.582 86.426.195.162.403.3.62.419 27.612 22.72 62.947 36.378 101.413 36.378 3.836 0 7.71-.136 11.514-.407a4 4 0 0 0 3.706-4.273c-.157-2.204-2.064-3.875-4.274-3.707zM407.786 287.856c.065-.639.127-1.278.185-1.917.082-.918.153-1.835.22-2.753.051-.708.105-1.415.147-2.124.057-.957.098-1.912.137-2.867.026-.628.06-1.254.079-1.882a158.4 158.4 0 0 0 .076-4.744c0-25.605-6.201-51.068-17.933-73.635a4 4 0 0 0-5.394-1.704l-.002.002-.004.001a4 4 0 0 0-1.703 5.394c11.145 21.433 17.036 45.619 17.036 69.942a151.474 151.474 0 0 1-.11 5.516c-.043 1.202-.1 2.403-.172 3.602-.018.298-.033.596-.053.894-.068 1.022-.157 2.042-.245 3.062-5.627-.886-9.917-4.29-11.134-7.701-4.949-13.852-10.995-17.858-26.955-17.858-7.274 0-14.65-6.216-18.176-12.356-2.538-4.418-3.15-8.602-1.639-11.192.652-1.12 1.316-2.195 1.973-3.261 5.383-8.741 10.95-17.78 6.968-42.47-.38-2.362-.57-4.71-.56-6.981a4 4 0 0 0-3.984-4.017h-.017a4 4 0 0 0-4 3.984c-.01 2.707.213 5.495.663 8.287 3.509 21.755-.843 28.82-5.882 37-.69 1.12-1.386 2.252-2.071 3.426-3.017 5.172-2.43 12.173 1.611 19.208 4.68 8.149 14.261 16.372 25.114 16.372 13.18 0 15.84 2.522 19.42 12.55 2.415 6.76 9.516 11.77 17.77 12.959-2.593 18.592-8.588 36.61-17.743 52.982a4 4 0 0 0 6.983 3.904c10.321-18.458 16.83-38.9 19.207-59.945.014-.082.04-.159.049-.242.053-.478.09-.958.139-1.436zM314.526 238.91c1.025-4.374 1.784-7.139 4.351-8.773 4.304-2.738 6.978-6.455 7.947-11.046 1.395-6.61-.881-14.438-6.766-23.266-8.162-12.244-18.217-18.495-26.893-16.724-5.962 1.217-10.306 6.128-11.62 13.137-1.583 8.438-4.917 10.031-11.56 13.205-2.037.972-4.344 2.074-6.797 3.505-5.449 3.178-7.934 9.644-6.485 16.873 1.515 7.558 7.564 16.283 17.264 17.576 3.868.516 5.901 3.308 8.256 6.541 2.499 3.433 5.978 8.21 12.419 8.21 1.948 0 4.168-.437 6.713-1.482 9.97-4.091 11.82-11.989 13.171-17.755zm-25.836 6.319c-2.703-3.71-6.404-8.794-13.666-9.762-5.491-.731-9.497-6.326-10.477-11.219-.369-1.838-.846-6.337 2.673-8.39 2.167-1.265 4.223-2.246 6.213-3.196 7.016-3.352 13.644-6.518 15.975-18.95.413-2.206 1.659-6.018 5.357-6.773a7.221 7.221 0 0 1 1.451-.144c6.022 0 12.898 7.037 17.185 13.467 4.516 6.774 6.503 12.875 5.595 17.177-.515 2.44-1.959 4.387-4.414 5.948-5.448 3.468-6.722 8.904-7.845 13.7-1.263 5.392-2.26 9.65-8.42 12.18-5.15 2.111-6.368.438-9.628-4.038zM191.892 234.477a4 4 0 0 0 3.523-5.888c-3.939-7.363-11.365-11.569-18.11-14.711-4.847-2.257-6.926-5.664-9.804-10.377-2.1-3.439-4.479-7.336-8.358-11.263a4 4 0 0 0-5.69 5.623c3.225 3.264 5.256 6.592 7.22 9.808 3.056 5.006 6.216 10.183 13.253 13.46 5.55 2.585 11.605 5.943 14.435 11.234a3.998 3.998 0 0 0 3.53 2.114z" fill="#5c5c63" opacity="1" data-original="#231f20" class=""></path><path d="M186.564 361.19c-1.767 7.607 1.983 14.568 9.12 16.927 1.487.49 3.103.757 4.76.757 5.601 0 11.69-3.032 14.998-10.638 2.735-6.291 6.666-9.433 10.83-12.76 4.287-3.427 8.721-6.97 11.178-13.638 3.872-10.51-.318-22.942-9.962-29.562a4 4 0 0 0-4.527 6.596c6.564 4.504 9.565 13.189 6.982 20.2-1.686 4.577-4.766 7.038-8.666 10.155-4.521 3.612-9.645 7.708-13.172 15.82-2.297 5.284-6.634 6.559-9.911 5.473-2.507-.828-4.832-3.24-3.837-7.522.547-2.357 1.074-4.323 1.538-6.058 2.34-8.735 2.893-12.314-2.14-23.281-2.903-6.329-.895-12.715 4.998-15.894a4 4 0 0 0-3.798-7.041c-9.533 5.143-13.095 16.19-8.47 26.27 4.086 8.906 3.672 10.45 1.683 17.876a183.376 183.376 0 0 0-1.604 6.32z" fill="#5c5c63" opacity="1" data-original="#231f20" class=""></path></g><g fill="#36f"><path d="M413.26 422.582c.712-6.01 1.688-20.683-2.823-37.22-5.813-21.318-38.767-54.988-40.167-56.41a4.001 4.001 0 0 0-2.851-1.195h-60.89c-1.073 0-2.1.431-2.852 1.195-1.4 1.422-34.354 35.092-40.167 56.41-4.51 16.537-3.535 31.21-2.823 37.22-4.595 3.094-9.936 9.444-7.98 18.838.808 3.873 2.881 6.892 5.997 8.73 4.93 2.912 11.12 2.125 14.155 1.475 5.241 2.74 23.343 10.263 64.115 10.263s58.873-7.523 64.114-10.263c3.034.65 9.226 1.436 14.156-1.474 3.115-1.839 5.188-4.857 5.995-8.731 1.957-9.394-3.383-15.744-7.98-18.838zm-62.324-40.45c0 .712-.357 1.14-1.14 1.14h-7.413c-.713 0-1.14-.428-1.14-1.14v-5.56c0-1.853-.927-2.85-2.851-2.85h-3.422c-1.782 0-2.85.997-2.85 2.85v9.836l16.963 5.56c1.212.498 1.853 1.282 1.853 2.636v16.465c0 6.486-3.35 10.05-9.694 10.264v4.205c0 .713-.427 1.14-1.14 1.14h-6.914c-.783 0-1.14-.427-1.14-1.14v-4.205c-6.2-.214-9.622-3.778-9.622-10.264v-7.484c0-.783.427-1.14 1.14-1.14h7.413c.784 0 1.14.356 1.14 1.14v5.489c0 1.924 1.07 2.85 2.851 2.85h3.422c1.853 0 2.85-.926 2.85-2.85v-9.48l-16.891-5.56c-1.283-.427-1.925-1.282-1.925-2.637v-16.82c0-6.487 3.421-10.05 9.622-10.264v-4.205c0-.713.357-1.14 1.14-1.14h6.914c.713 0 1.14.427 1.14 1.14v4.205c6.344.214 9.694 3.777 9.694 10.263v7.555zM371.655 111.713c-22.593 0-40.974 18.381-40.974 40.975a40.643 40.643 0 0 0 3.75 17.123 41.242 41.242 0 0 0 2.154 4.075c.034.056.07.112.106.166l31.648 46.902a4 4 0 0 0 6.632 0l31.647-46.9c.036-.053.071-.11.105-.165a40.908 40.908 0 0 0 5.907-21.2c0-22.595-18.382-40.976-40.975-40.976zm0 61.497c-11.316 0-20.522-9.206-20.522-20.522 0-11.316 9.206-20.522 20.522-20.522s20.522 9.206 20.522 20.522c0 11.316-9.206 20.522-20.522 20.522zM215.121 38.112h-.002c-10.943 0-21.233 4.263-28.971 12-7.74 7.74-12.002 18.03-12.002 28.973 0 5.96 1.262 11.721 3.75 17.123l3.633-1.674-3.633 1.674a41.18 41.18 0 0 0 2.155 4.076l.106.166 31.648 46.901a4 4 0 0 0 6.632 0l31.646-46.898c.036-.054.072-.11.105-.165a40.916 40.916 0 0 0 5.907-21.202c0-22.593-18.38-40.974-40.974-40.974zm0 61.496c-11.316 0-20.522-9.206-20.522-20.523 0-11.315 9.206-20.521 20.522-20.521s20.522 9.206 20.522 20.521c0 11.317-9.206 20.523-20.522 20.523zM119.32 139.979c-22.593 0-40.975 18.38-40.975 40.974 0 5.96 1.262 11.72 3.75 17.122a40.987 40.987 0 0 0 2.156 4.077c.033.056.069.111.105.165l31.648 46.901a4 4 0 0 0 6.632 0l31.646-46.898c.036-.054.072-.11.106-.165a40.918 40.918 0 0 0 5.906-21.202c0-22.593-18.38-40.974-40.974-40.974zm0 61.496c-11.316 0-20.522-9.206-20.522-20.522 0-11.316 9.206-20.522 20.522-20.522s20.522 9.206 20.522 20.522c0 11.316-9.206 20.522-20.522 20.522zM211.121 223.37c-22.593 0-40.974 18.38-40.974 40.974 0 5.96 1.261 11.72 3.749 17.121l3.634-1.673-3.633 1.674a41.08 41.08 0 0 0 2.155 4.076c.034.056.07.112.105.165l31.648 46.902a4 4 0 0 0 6.632 0l31.646-46.899c.036-.053.071-.109.106-.165a40.908 40.908 0 0 0 5.906-21.2c0-22.595-18.38-40.975-40.974-40.975zm0 61.496c-11.316 0-20.522-9.206-20.522-20.523 0-11.315 9.206-20.521 20.522-20.521s20.522 9.206 20.522 20.521c0 11.317-9.206 20.523-20.522 20.523z" fill="#ff8e00" opacity="1" data-original="#3366ff" class=""></path></g><path fill="#5c5c63" d="M374.336 286.863c-4.024-10.345-18.69-17.031-37.362-17.031-18.674 0-33.34 6.685-37.363 17.03-2.934 7.546 3.525 19.167 7.98 25.857-3.61 2.173-6.039 6.118-6.039 10.63 0 6.842 5.567 12.408 12.409 12.408h46.025c6.843 0 12.409-5.566 12.409-12.408 0-4.512-2.428-8.457-6.039-10.63 4.455-6.69 10.915-18.311 7.98-25.856zm-14.35 40.894h-46.025a4.413 4.413 0 0 1-4.409-4.408 4.414 4.414 0 0 1 4.409-4.41h46.025a4.413 4.413 0 0 1 4.41 4.41 4.413 4.413 0 0 1-4.41 4.408zm-2.122-16.817h-41.771c-5.032-6.98-10.51-17.359-9.026-21.178 2.234-5.746 12.546-11.93 29.907-11.93s27.672 6.184 29.906 11.93v.001c.94 2.417-1.338 10.69-9.016 21.177z" opacity="1" data-original="#231f20" class=""></path></g></svg>