<svg xmlns="http://www.w3.org/2000/svg" version="1.1" xmlns:xlink="http://www.w3.org/1999/xlink" width="512" height="512" x="0" y="0" viewBox="0 0 500 500" style="enable-background:new 0 0 512 512" xml:space="preserve" class=""><g><path fill="#ff8e00" d="M345.617 284.85c-.512-8.44-3.515-18.285-8.455-27.72-4.94-9.436-11.32-17.512-17.966-22.741-10.834-8.523-18.536-6.676-22.198-4.781-.215.11-.425.23-.63.365-.034.023-.065.05-.1.073-.14.096-.278.194-.41.303-.12.097-.231.2-.343.305-.043.04-.089.077-.131.119a6.427 6.427 0 0 0-.469.515l-16.361 19.798a6.5 6.5 0 0 0 5.007 10.641c.662 0 1.321-.106 1.956-.305 2.797 6.54 9.2 20.616 16.42 30.495a6.499 6.499 0 0 0 2.226 12.375l29.156 2.28c.16.013.317.019.475.02l.037.002c.027 0 .053-.005.08-.005.208-.002.414-.015.618-.037.074-.008.149-.021.223-.032a6.396 6.396 0 0 0 .711-.142c.183-.048.363-.103.54-.166.047-.017.094-.031.141-.05a6.45 6.45 0 0 0 .675-.302c.007-.003.014-.005.022-.01 3.637-1.904 9.615-7.164 8.776-21z" opacity="1" data-original="#3366ff" class=""></path><g fill="#36f"><path d="M111.492 136.731h15.6l-7.8-16.9zM185.44 111.752h-12.175v41.97h12.175a5.685 5.685 0 0 0 5.679-5.679V117.43a5.685 5.685 0 0 0-5.68-5.678z" fill="#ff8e00" opacity="1" data-original="#3366ff" class=""></path><path d="M266.854 40.65H74.631c-14.355 0-26.033 11.68-26.033 26.035v143.132c0 14.355 11.678 26.034 26.033 26.034h67.106l23.376 40.49a6.5 6.5 0 0 0 11.26 0l23.376-40.49H252.994l13.268-34.929 24.493-27.137c.318-.29.606-.609.862-.955a6.464 6.464 0 0 0 1.27-3.85V66.685c0-14.356-11.678-26.035-26.033-26.035zM84.044 75.834a6.5 6.5 0 0 1 6.5-6.5h10.79a6.5 6.5 0 0 1 0 13h-10.79a6.5 6.5 0 0 1-6.5-6.5zm64.524 91.92a6.501 6.501 0 0 1-8.625-3.178l-6.852-14.845h-27.599l-6.85 14.846a6.5 6.5 0 0 1-11.805-5.448l26.553-57.534a6.5 6.5 0 0 1 11.803 0l26.553 57.534a6.5 6.5 0 0 1-3.178 8.626zm55.55-19.711c0 10.3-8.379 18.679-18.678 18.679h-18.675a6.5 6.5 0 0 1-6.5-6.5v-54.97a6.5 6.5 0 0 1 6.5-6.5h18.675c10.3 0 18.679 8.379 18.679 18.678zm18.611 59.38H211.94a6.5 6.5 0 0 1 0-13h10.79a6.5 6.5 0 0 1 0 13zm26.017-81.15a6.5 6.5 0 0 1 6.5 6.5v27.449a6.5 6.5 0 0 1-6.5 6.5h-28.844a6.5 6.5 0 0 1 0-13h22.344v-14.448h-22.344a6.5 6.5 0 0 1-6.5-6.5v-27.522a6.5 6.5 0 0 1 6.5-6.5h28.844a6.5 6.5 0 0 1 0 13h-22.344v14.522z" fill="#ff8e00" opacity="1" data-original="#3366ff" class=""></path></g><g fill="#070606"><path d="M374.246 237.713c-5.13-9.798-10.88-19.056-17.088-27.518-25.65-34.959-54.741-50.994-74.116-40.848-7.993 4.184-13.337 12.271-15.769 23.454-5.969 16.384-24.84 59.712-64.971 85.77a6.5 6.5 0 0 0 7.08 10.904c28.228-18.33 46.567-43.987 57.757-64.7 2.792 18.302 9.766 38.675 20.134 58.476 8.995 17.18 19.801 32.505 31.29 44.574-.487-.096-.971-.193-1.463-.286-32.388-6.134-60.798-2.215-82.164 11.33a6.492 6.492 0 0 0-3.016 5.394 6.477 6.477 0 0 0 .43 5.03l8.988 17.063-27.683 19.397-16.546-21.1a6.5 6.5 0 0 0-10.23 8.022l20.347 25.947a6.491 6.491 0 0 0 5.12 2.49 6.47 6.47 0 0 0 3.445-1.012l38.147 53.068a14.824 14.824 0 0 0 12.064 6.182c3.938 0 7.72-1.561 10.522-4.38l18.693-18.798a14.87 14.87 0 0 0 4.1-13.013 14.87 14.87 0 0 0-8.25-10.867l-15.017-7.143-21.964-31.94c2.188-1.965 2.824-5.185 1.423-7.845l-9.456-17.95c35.267-19.094 81.276-5.229 99.736 1.762 3.005 1.536 5.949 2.748 8.816 3.638.107.038.215.066.323.098 3.769 1.14 7.406 1.728 10.865 1.728 4.562 0 8.821-1 12.684-3.022 12.496-6.543 18.553-22.583 17.055-45.164-1.375-20.74-8.935-45.152-21.286-68.741zM268.891 416.138l16.59 7.893a1.811 1.811 0 0 1 1.029 1.353 1.81 1.81 0 0 1-.511 1.62l-18.693 18.8a1.844 1.844 0 0 1-1.459.54 1.827 1.827 0 0 1-1.354-.764l-38.04-52.92 17.027-11.931 22.847 33.223a6.5 6.5 0 0 0 2.564 2.186zm103.555-76.037c-3.577 1.874-8.147 1.989-13.367.49-1.11-.512-3.974-1.795-8.225-3.43-3.546-1.895-7.272-4.366-11.115-7.425-14.877-11.844-29.42-30.494-40.95-52.515-17.23-32.908-22.496-63.142-18.895-81.007 1.297-3.686 1.96-6.004 2.09-6.466.079-.282.13-.564.17-.846 1.703-3.774 4.027-6.525 6.918-8.039 1.979-1.035 4.232-1.535 6.708-1.535 13.47 0 33.465 14.8 50.897 38.558 5.823 7.937 11.224 16.636 16.052 25.857 24.567 46.92 24.839 88.44 9.717 96.358zM171.555 358.473a17 17 0 0 1-2.545 1.636c-8.449 4.422-19.03.941-23.587-7.761-4.556-8.703-1.39-19.383 7.058-23.806a17.075 17.075 0 0 1 2.586-1.093 6.5 6.5 0 1 0-4.044-12.355 29.994 29.994 0 0 0-4.571 1.93c-14.8 7.75-20.427 26.3-12.545 41.354 5.534 10.57 16.281 16.648 27.315 16.648a29.7 29.7 0 0 0 13.817-3.4 29.97 29.97 0 0 0 4.498-2.892 6.5 6.5 0 1 0-7.982-10.26zM450.87 201.953a6.5 6.5 0 0 0-8.545-3.39l-49.593 21.42a6.5 6.5 0 0 0 5.156 11.935l49.592-21.42a6.5 6.5 0 0 0 3.39-8.545zM393.432 171.626 373.31 189.5a6.5 6.5 0 0 0 8.633 9.72l20.121-17.873a6.5 6.5 0 0 0-8.632-9.72zM435.301 251.353l-29.693 2.655a6.5 6.5 0 0 0 1.158 12.948l29.692-2.655a6.5 6.5 0 0 0-1.157-12.948zM322.652 74.325h33.086a6.5 6.5 0 0 0 0-13h-33.086a6.5 6.5 0 0 0 0 13zM322.652 105.676h103.754a6.5 6.5 0 0 0 0-13H322.652a6.5 6.5 0 0 0 0 13zM322.652 137.027h103.754a6.5 6.5 0 0 0 0-13H322.652a6.5 6.5 0 0 0 0 13z" fill="#5c5c63" opacity="1" data-original="#070606" class=""></path></g><path fill="#ff8e00" d="M253.107 339.485a6.5 6.5 0 0 0-4.516-5.626c-21.099-6.668-34.864-32.958-28.324-54.097a6.5 6.5 0 0 0-9.225-7.679l-54.416 28.491a10.975 10.975 0 0 0-5.532 6.978c-6.91 26.867 9.233 57.7 35.25 67.326a10.976 10.976 0 0 0 8.889-.573l54.415-28.49a6.499 6.499 0 0 0 3.459-6.33zm-80.314-13.67a6.5 6.5 0 0 1 2.744-8.772l14.427-7.554a6.5 6.5 0 0 1 6.03 11.516l-14.427 7.554a6.499 6.499 0 0 1-8.773-2.743zm32.41 12.78-14.427 7.553a6.499 6.499 0 0 1-8.774-2.743 6.5 6.5 0 0 1 2.744-8.773l14.427-7.554a6.5 6.5 0 0 1 8.774 2.743 6.5 6.5 0 0 1-2.743 8.774z" opacity="1" data-original="#3366ff" class=""></path></g></svg>