<svg xmlns="http://www.w3.org/2000/svg" version="1.1" xmlns:xlink="http://www.w3.org/1999/xlink" width="512" height="512" x="0" y="0" viewBox="0 0 500 500" style="enable-background:new 0 0 512 512" xml:space="preserve" class=""><g transform="matrix(0.9999999999999993,0,0,0.9999999999999993,2.8421709430404007e-13,1.9895196601282805e-13)"><path fill="#ff8e00" d="M82.311 176.326H78.95c-10.82 0-19.624 8.803-19.624 19.624s8.803 19.624 19.624 19.624h3.361a4 4 0 0 0 4-4v-31.248a4 4 0 0 0-4-4zM82.311 232.075H78.95c-10.82 0-19.624 8.804-19.624 19.624 0 10.82 8.803 19.624 19.624 19.624h3.361a4 4 0 0 0 4-4v-31.248a4 4 0 0 0-4-4zM440.674 303.888v-77.064c0-10.614-8.636-19.25-19.25-19.25h-89.085a4 4 0 0 0-4 4v92.314zM328.339 311.888h112.335v22.821H328.339zM328.339 342.709v32.894a4 4 0 0 0 4 4h89.085c10.614 0 19.25-8.636 19.25-19.25v-17.644z" opacity="1" data-original="#3366ff" class=""></path><g fill="#231f20"><path d="M271.054 194.466c0-10.003-8.137-18.14-18.14-18.14H120.902c-10.002 0-18.14 8.138-18.14 18.14v31.075c0 10.002 8.138 18.14 18.14 18.14h132.012c10.002 0 18.14-8.138 18.14-18.14v-31.075zm-8 31.075c0 5.59-4.55 10.14-10.14 10.14H120.902c-5.59 0-10.14-4.55-10.14-10.14v-31.075c0-5.59 4.55-10.14 10.14-10.14h132.012c5.59 0 10.14 4.55 10.14 10.14v31.075zM135.194 257.14h-12.98c-8.755 0-15.878 7.123-15.878 15.878s7.123 15.877 15.877 15.877h12.981c8.755 0 15.877-7.123 15.877-15.877s-7.122-15.877-15.877-15.877zm0 23.755h-12.98c-4.344 0-7.878-3.534-7.878-7.877s3.534-7.877 7.877-7.877h12.981c4.344 0 7.877 3.533 7.877 7.877s-3.533 7.877-7.877 7.877zM180.417 288.895H193.4c8.754 0 15.876-7.123 15.876-15.877s-7.122-15.877-15.876-15.877h-12.982c-8.754 0-15.876 7.122-15.876 15.877s7.122 15.877 15.877 15.877zm0-23.754H193.4c4.343 0 7.876 3.533 7.876 7.877s-3.533 7.877-7.876 7.877h-12.982c-4.343 0-7.876-3.534-7.876-7.877s3.533-7.877 7.877-7.877zM251.603 257.14h-12.981c-8.754 0-15.877 7.123-15.877 15.878s7.123 15.877 15.877 15.877h12.981c8.754 0 15.877-7.123 15.877-15.877s-7.123-15.877-15.877-15.877zm0 23.755h-12.981c-4.343 0-7.877-3.534-7.877-7.877s3.534-7.877 7.877-7.877h12.981c4.343 0 7.877 3.533 7.877 7.877s-3.534 7.877-7.877 7.877zM135.194 299.99h-12.98c-8.755 0-15.878 7.121-15.878 15.876s7.123 15.877 15.877 15.877h12.981c8.755 0 15.877-7.123 15.877-15.877s-7.122-15.877-15.877-15.877zm0 23.753h-12.98c-4.344 0-7.878-3.534-7.878-7.877s3.534-7.877 7.877-7.877h12.981c4.344 0 7.877 3.533 7.877 7.877s-3.533 7.877-7.877 7.877zM180.417 331.743H193.4c8.754 0 15.876-7.123 15.876-15.877s-7.122-15.877-15.876-15.877h-12.982c-8.754 0-15.876 7.122-15.876 15.877s7.122 15.877 15.877 15.877zm0-23.754H193.4c4.343 0 7.876 3.534 7.876 7.877s-3.533 7.877-7.876 7.877h-12.982c-4.343 0-7.876-3.534-7.876-7.877s3.533-7.877 7.877-7.877zM251.603 299.99h-12.981c-8.754 0-15.877 7.121-15.877 15.876s7.123 15.877 15.877 15.877h12.981c8.754 0 15.877-7.123 15.877-15.877s-7.123-15.877-15.877-15.877zm0 23.753h-12.981c-4.343 0-7.877-3.534-7.877-7.877s3.534-7.877 7.877-7.877h12.981c4.343 0 7.877 3.533 7.877 7.877s-3.534 7.877-7.877 7.877zM135.194 342.837h-12.98c-8.755 0-15.878 7.123-15.878 15.877s7.123 15.877 15.877 15.877h12.981c8.755 0 15.877-7.122 15.877-15.877s-7.122-15.877-15.877-15.877zm0 23.754h-12.98c-4.344 0-7.878-3.533-7.878-7.877s3.534-7.877 7.877-7.877h12.981c4.344 0 7.877 3.534 7.877 7.877s-3.533 7.877-7.877 7.877zM180.417 374.59H193.4c8.754 0 15.876-7.121 15.876-15.876s-7.122-15.877-15.876-15.877h-12.982c-8.754 0-15.876 7.123-15.876 15.877s7.122 15.877 15.877 15.877zm0-23.752H193.4c4.343 0 7.876 3.533 7.876 7.876s-3.533 7.877-7.876 7.877h-12.982c-4.343 0-7.876-3.533-7.876-7.877s3.533-7.877 7.877-7.877zM151.631 401.563c0 8.754 7.122 15.877 15.877 15.877h38.8c8.755 0 15.877-7.123 15.877-15.877s-7.122-15.877-15.876-15.877h-38.801c-8.755 0-15.877 7.122-15.877 15.877zm15.877-7.877h38.8c4.344 0 7.877 3.533 7.877 7.877s-3.533 7.877-7.876 7.877h-38.801c-4.344 0-7.877-3.534-7.877-7.877s3.534-7.877 7.877-7.877zM251.603 342.837h-12.981c-8.754 0-15.877 7.123-15.877 15.877s7.123 15.877 15.877 15.877h12.981c8.754 0 15.877-7.122 15.877-15.877s-7.123-15.877-15.877-15.877zm0 23.754h-12.981c-4.343 0-7.877-3.533-7.877-7.877s3.534-7.877 7.877-7.877h12.981c4.343 0 7.877 3.534 7.877 7.877s-3.534 7.877-7.877 7.877z" fill="#5c5c63" opacity="1" data-original="#231f20" class=""></path><path d="M315.253 183.33h-19.748v-35.971c0-22.161-10.678-33.398-31.737-33.398h-5.542a4 4 0 0 0 0 8h5.542c16.638 0 23.737 7.596 23.737 25.398V411.15c0 17.802-7.099 25.398-23.737 25.398h-153.72c-16.638 0-23.737-7.596-23.737-25.398V147.359c0-17.802 7.1-25.398 23.738-25.398h6.927a4 4 0 0 0 0-8h-6.927c-21.06 0-31.738 11.237-31.738 33.398V411.15c0 22.161 10.678 33.398 31.738 33.398h153.719c21.06 0 31.737-11.237 31.737-33.398v-14.461h19.748c11.627 0 21.086-9.459 21.086-21.086V204.415c0-11.627-9.46-21.086-21.086-21.086zm-19.748 8h9.778v197.359h-9.778zm32.834 184.273c0 7.216-5.87 13.086-13.086 13.086h-1.97v-197.36h1.97c7.216 0 13.086 5.87 13.086 13.086z" fill="#5c5c63" opacity="1" data-original="#231f20" class=""></path></g><path fill="#ff8e00" d="M267.054 149.534h-8.758V59.452a4 4 0 0 0-6.758-2.896l-14.089 13.42-14.088-13.42a4 4 0 0 0-5.518 0l-14.088 13.42-14.088-13.42a4 4 0 0 0-5.518 0l-14.088 13.42-14.088-13.42a3.999 3.999 0 0 0-5.517 0l-14.089 13.42-14.088-13.42a4 4 0 0 0-6.759 2.896v90.082h-8.757a4 4 0 0 0 0 8H267.054a4 4 0 0 0 0-8zm-102.366-49.296h47.301a4 4 0 0 1 0 8h-47.301a4 4 0 0 1 0-8zm62.057 28.632h-76.813a4 4 0 0 1 0-8h76.813a4 4 0 0 1 0 8z" opacity="1" data-original="#3366ff" class=""></path></g></svg>