<svg xmlns="http://www.w3.org/2000/svg" version="1.1" xmlns:xlink="http://www.w3.org/1999/xlink" width="512" height="512" x="0" y="0" viewBox="0 0 500 500" style="enable-background:new 0 0 512 512" xml:space="preserve" class=""><g><path fill="#ff8e00" d="M248.803 294.51c-1.911-10.816-5.661-20.743-10.559-27.951-7.953-11.706-16.035-12.276-20.181-11.562-.232.038-.462.09-.69.154-.06.017-.117.04-.175.059-.143.045-.287.089-.428.144a6.465 6.465 0 0 0-.47.21c-.035.018-.073.032-.11.05-.21.108-.414.226-.61.355l-22.318 14.394a6.5 6.5 0 0 0 3.528 11.963c.178 0 .356-.023.533-.037.12 8.941 1.052 25.885 6.069 35.681a6.498 6.498 0 0 0-1.57 12.46l28.025 11.37c.044.018.09.03.135.047.06.024.123.044.185.065.313.11.63.198.947.257.03.006.062.008.093.013.36.062.722.097 1.081.097.358 0 .711-.037 1.06-.095.025-.004.05-.002.074-.006 4.13-.73 11.573-4.012 15.045-17.79 2.129-8.451 2.248-19.062.336-29.878zM335.66 185.16h-29.764a6.5 6.5 0 0 0-6.5 6.5v35.31a6.5 6.5 0 0 0 6.5 6.5h29.764a6.5 6.5 0 0 0 6.5-6.5v-35.31a6.5 6.5 0 0 0-6.5-6.5zM388.64 161.337h-29.764a6.5 6.5 0 0 0-6.5 6.5v59.132a6.5 6.5 0 0 0 6.5 6.5h29.764a6.5 6.5 0 0 0 6.5-6.5v-59.132a6.5 6.5 0 0 0-6.5-6.5zM441.024 136.597h-29.763a6.5 6.5 0 0 0-6.5 6.5v83.872a6.5 6.5 0 0 0 6.5 6.5h29.763a6.5 6.5 0 0 0 6.5-6.5v-83.872a6.5 6.5 0 0 0-6.5-6.5z" opacity="1" data-original="#3366ff" class=""></path><g fill="#070606"><path d="M54.144 342.759c-.983.363-2.012.64-3.059.826-9.83 1.744-19.29-5.085-21.08-15.21-1.788-10.126 4.756-19.778 14.589-21.516a17.815 17.815 0 0 1 2.928-.272 6.5 6.5 0 0 0-.06-13l-.06.001a30.854 30.854 0 0 0-5.072.47c-16.89 2.986-28.162 19.395-25.125 36.58 2.715 15.36 15.957 26.219 30.803 26.219a30.836 30.836 0 0 0 10.64-1.902 6.501 6.501 0 0 0-4.504-12.196zM453.104 27.961h-348.49c-16.644 0-30.186 13.542-30.186 30.187v194.828a6.5 6.5 0 0 0 13 0V110.128H470.29v220.598c0 9.477-7.71 17.187-17.187 17.187h-159.69c2.48-18.241 1.833-39.366-1.981-60.938-4.788-27.088-14.013-51.821-25.975-69.645-12.99-19.357-28.007-28.628-42.278-26.104-9.419 1.665-17.378 8.267-23.303 19.068-11.399 15.14-43.026 51.864-89.853 64.75a6.5 6.5 0 0 0 3.45 12.534c33.525-9.225 59.444-29.125 76.79-46.397-2.887 18.787-2.36 40.843 1.626 63.39 3.534 19.995 9.491 38.697 17.177 54.295-.646-.359-1.298-.716-1.958-1.072-29.954-16.152-59.131-21.173-84.374-14.522a6.49 6.49 0 0 0-4.516 4.263 6.475 6.475 0 0 0-1.132 4.95l3.555 19.824-33.745 10.581-9.782-26.174a6.5 6.5 0 0 0-12.178 4.55l11.938 31.945a6.503 6.503 0 0 0 6.088 4.226c.607 0 1.223-.094 1.832-.273l21.06 64.438a15.11 15.11 0 0 0 8.673 9.313 15.124 15.124 0 0 0 12.714-.597l24.308-12.681a15.156 15.156 0 0 0 7.996-11.377 15.156 15.156 0 0 0-4.664-13.1l-12.61-11.782-11.725-38.579a6.499 6.499 0 0 0 3.901-7.148l-3.743-20.867c40.89-7.946 82.077 20.222 98.148 32.938 2.607 2.58 5.259 4.782 7.937 6.607.056.037.11.075.167.11 6.118 4.132 12.372 6.288 18.546 6.288 1.553 0 3.1-.135 4.64-.407 14.273-2.523 25.199-16.38 30.766-39.016.032-.128.058-.263.089-.391h162.106c16.645 0 30.187-13.542 30.187-30.187V58.148c0-16.645-13.542-30.187-30.187-30.187zM146.007 442.658c.702.656.714 1.44.658 1.848s-.276 1.16-1.128 1.605l-24.308 12.681a2.108 2.108 0 0 1-1.793.084 2.105 2.105 0 0 1-1.223-1.313l-21.009-64.281 20.946-6.568 12.19 40.113a6.495 6.495 0 0 0 1.782 2.86zm111.872-55.14c-4.178.737-8.78-.596-13.512-3.748-.926-.846-3.349-3.01-7.036-5.956-2.917-2.991-5.83-6.607-8.673-10.842-10.975-16.355-19.487-39.32-23.968-64.664-6.591-37.29-2.535-68.418 6.353-85.162 2.73-3.721 4.265-6.129 4.552-6.586.127-.202.24-.41.342-.62 2.91-3.272 6.118-5.314 9.506-5.913.76-.134 1.531-.2 2.317-.2 8.287 0 17.949 7.403 26.904 20.747 10.976 16.354 19.487 39.319 23.968 64.663 9.557 54.067-3.266 95.19-20.753 98.281zM87.428 97.128v-38.98c0-9.477 7.71-17.187 17.186-17.187h348.49c9.477 0 17.187 7.71 17.187 17.187v38.98z" fill="#5c5c63" opacity="1" data-original="#070606" class=""></path><path d="M121.55 62.695h-2.662a6.5 6.5 0 0 0 0 13h2.662a6.5 6.5 0 0 0 0-13zM178.772 62.695h-2.662a6.5 6.5 0 0 0 0 13h2.661a6.5 6.5 0 0 0 0-13zM150.161 62.695H147.5a6.5 6.5 0 0 0 0 13h2.662a6.5 6.5 0 0 0 0-13zM441.024 254.884h-99.837a6.5 6.5 0 0 0 0 13h99.837a6.5 6.5 0 0 0 0-13zM341.187 297.699h9.832a6.5 6.5 0 0 0 0-13h-9.832a6.5 6.5 0 0 0 0 13zM441.024 284.699h-65.899a6.5 6.5 0 0 0 0 13h65.9a6.5 6.5 0 0 0 0-13zM341.187 327.514h99.837a6.5 6.5 0 0 0 0-13h-99.837a6.5 6.5 0 0 0 0 13zM114.361 153.403h16.301a6.5 6.5 0 0 0 0-13h-16.3a6.5 6.5 0 0 0 0 13zM114.361 182.584h16.301a6.5 6.5 0 0 0 0-13h-16.3a6.5 6.5 0 0 0 0 13zM155.38 153.403h16.303a6.5 6.5 0 0 0 0-13H155.38a6.5 6.5 0 0 0 0 13zM155.38 182.584h16.303a6.5 6.5 0 0 0 0-13H155.38a6.5 6.5 0 0 0 0 13zM114.361 211.765h16.301a6.5 6.5 0 0 0 0-13h-16.3a6.5 6.5 0 0 0 0 13z" fill="#5c5c63" opacity="1" data-original="#070606" class=""></path></g><path fill="#ff8e00" d="M137.578 342.573c-18.805-13.24-24.173-43.611-11.048-62.495a6.499 6.499 0 0 0-6.468-10.111l-62.553 11.058a11.132 11.132 0 0 0-7.49 5.046c-15.16 24.23-8.918 59.54 13.629 77.102a11.125 11.125 0 0 0 8.766 2.174l62.554-11.058a6.501 6.501 0 0 0 2.61-11.716zm-71.852-31.865a6.5 6.5 0 0 1 5.268-7.533l16.585-2.931a6.5 6.5 0 0 1 2.264 12.802l-16.585 2.931a6.5 6.5 0 0 1-7.532-5.27zm27.691 22.557-16.585 2.932a6.5 6.5 0 0 1-2.264-12.802l16.585-2.932a6.5 6.5 0 0 1 2.264 12.802z" opacity="1" data-original="#3366ff" class=""></path></g></svg>
